<?xml version="1.0" standalone="no"?>
<!DOCTYPE svg PUBLIC "-//W3C//DTD SVG 20010904//EN"
 "http://www.w3.org/TR/2001/REC-SVG-20010904/DTD/svg10.dtd">
<svg version="1.0" xmlns="http://www.w3.org/2000/svg"
 width="700.000000pt" height="700.000000pt" viewBox="0 0 700.000000 700.000000"
 preserveAspectRatio="xMidYMid meet">
<metadata>
Created by potrace 1.11, written by Peter Selinger 2001-2013
</metadata>
<g transform="translate(0.000000,700.000000) scale(0.100000,-0.100000)"
fill="#000000" stroke="none">
<path d="M3397 6844 c-1 -1 -40 -5 -87 -8 -237 -18 -488 -80 -724 -178 -58
-25 -222 -110 -299 -156 -195 -116 -460 -350 -611 -539 -241 -304 -408 -657
-484 -1028 -21 -102 -26 -133 -42 -265 -9 -78 -6 -477 4 -519 3 -12 8 -42 10
-65 3 -22 8 -52 11 -66 2 -14 7 -38 10 -55 18 -96 54 -225 91 -330 180 -507
199 -557 296 -780 99 -228 248 -511 438 -834 34 -58 259 -399 319 -483 92
-130 310 -419 331 -438 3 -3 34 -41 70 -85 173 -214 351 -412 630 -697 l155
-159 100 99 c252 251 467 486 685 752 56 69 109 134 119 145 66 79 308 413
407 561 114 169 269 419 329 529 14 28 42 77 61 110 61 107 229 456 289 600
32 77 64 154 71 170 46 109 145 429 179 580 8 33 25 110 39 170 14 61 28 128
31 150 3 22 8 47 10 55 27 99 27 557 0 715 -37 214 -97 429 -165 587 -136 315
-297 550 -539 788 -440 434 -996 666 -1619 674 -62 1 -114 1 -115 0z m-492
-1246 c11 -3 38 -9 60 -12 274 -48 569 -246 731 -489 89 -132 174 -336 189
-452 1 -11 6 -45 10 -75 20 -137 8 -323 -30 -465 -44 -164 -152 -397 -273
-585 -51 -79 -187 -269 -201 -280 -4 -3 -22 -25 -41 -50 -92 -117 -378 -407
-528 -534 l-92 -79 69 -131 c38 -72 81 -152 97 -179 16 -26 57 -93 91 -150 34
-56 171 -268 305 -470 321 -487 338 -513 338 -542 0 -15 -9 -31 -24 -41 -24
-15 -29 -14 -125 36 -190 99 -462 329 -664 560 -151 173 -363 472 -492 695
-32 55 -79 132 -105 170 -121 181 -269 454 -362 665 -133 302 -212 562 -264
865 -14 83 -29 173 -34 200 -12 73 -5 288 13 377 49 240 161 451 332 623 102
104 185 165 302 224 90 46 241 99 305 107 24 3 59 9 78 14 37 8 281 6 315 -2z"/>
<path d="M2690 5103 c-54 -5 -170 -34 -219 -55 -73 -31 -176 -104 -234 -168
-119 -128 -180 -272 -193 -450 -30 -409 282 -755 678 -752 383 2 692 325 691
722 0 93 -24 231 -46 258 -5 6 -7 12 -4 12 9 0 -51 109 -90 162 -72 99 -203
195 -324 237 -30 10 -56 18 -59 19 -3 0 -32 3 -65 7 -93 11 -98 11 -135 8z"/>
</g>
</svg>
